0
SECTION
2
HEADER
9
$INSUNITS
70
4
9
$ACADVER
1
AC1014
9
$HANDSEED
5
FFFF
0
ENDSEC
0
SECTION
2
TABLES
0
TABLE
2
VPORT
5
8
100
AcDbSymbolTable
0
ENDTAB
0
TABLE
2
LTYPE
5
5
100
AcDbSymbolTable
0
LTYPE
5
14
100
AcDbSymbolTableRecord
100
AcDbLinetypeTableRecord
2
BYBLOCK
70
0
0
LTYPE
5
15
100
AcDbSymbolTableRecord
100
AcDbLinetypeTableRecord
2
BYLAYER
70
0
0
ENDTAB
0
TABLE
2
LAYER
5
2
100
AcDbSymbolTable
70
2
0
LAYER
5
50
100
AcDbSymbolTableRecord
100
AcDbLayerTableRecord
2
0
70
0
6
CONTINUOUS
0
ENDTAB
0
TABLE
2
STYLE
5
3
100
AcDbSymbolTable
70
1
0
STYLE
5
11
100
AcDbSymbolTableRecord
100
AcDbTextStyleTableRecord
2
STANDARD
70
0
0
ENDTAB
0
TABLE
2
VIEW
5
6
100
AcDbSymbolTable
70
0
0
ENDTAB
0
TABLE
2
UCS
5
7
100
AcDbSymbolTable
70
0
0
ENDTAB
0
TABLE
2
APPID
5
9
100
AcDbSymbolTable
70
2
0
APPID
5
12
100
AcDbSymbolTableRecord
100
AcDbRegAppTableRecord
2
ACAD
70
0
0
ENDTAB
0
TABLE
2
DIMSTYLE
5
A
100
AcDbSymbolTable
70
1
0
ENDTAB
0
TABLE
2
BLOCK_RECORD
5
1
100
AcDbSymbolTable
70
1
0
BLOCK_RECORD
5
1F
100
AcDbSymbolTableRecord
100
AcDbBlockTableRecord
2
*MODEL_SPACE
0
BLOCK_RECORD
5
1B
100
AcDbSymbolTableRecord
100
AcDbBlockTableRecord
2
*PAPER_SPACE
0
ENDTAB
0
ENDSEC
0
SECTION
2
BLOCKS
0
BLOCK
5
20
100
AcDbEntity
100
AcDbBlockBegin
2
*MODEL_SPACE
0
ENDBLK
5
21
100
AcDbEntity
100
AcDbBlockEnd
0
BLOCK
5
1C
100
AcDbEntity
100
AcDbBlockBegin
2
*PAPER_SPACE
0
ENDBLK
5
1D
100
AcDbEntity
100
AcDbBlockEnd
0
ENDSEC
0
SECTION
2
ENTITIES
0
LWPOLYLINE
5
100
100
AcDbEntity
8
0
100
AcDbPolyline
90
24
70
1
43
0.0
10
-195.73069786746299
20
11.596203867029701
10
-195.78180912803003
20
11.207975299375901
10
-195.93165976178696
20
10.846203867029701
10
-196.17003769568296
20
10.535543695249903
10
-196.48069786746299
20
10.297165761353002
10
-196.84246929980901
20
10.1473151275961
10
-197.23069786746296
20
10.096203867029699
10
-197.618926435117
20
10.1473151275961
10
-197.98069786746296
20
10.297165761353002
10
-198.29135803924299
20
10.535543695249903
10
-198.52973597314002
20
10.846203867029701
10
-198.67958660689703
20
11.207975299375901
10
-198.73069786746299
20
11.596203867029701
10
-198.67958660689703
20
11.984432434683503
10
-198.52973597314002
20
12.346203867029699
10
-198.29135803924299
20
12.656864038809502
10
-197.98069786746296
20
12.895241972706302
10
-197.618926435117
20
13.045092606463299
10
-197.23069786746296
20
13.096203867029699
10
-196.84246929980901
20
13.045092606463299
10
-196.48069786746299
20
12.895241972706302
10
-196.17003769568296
20
12.656864038809502
10
-195.93165976178696
20
12.346203867029699
10
-195.78180912803003
20
11.984432434683503
0
LWPOLYLINE
5
101
100
AcDbEntity
8
0
100
AcDbPolyline
90
28
70
1
43
0.0
10
-263.79457157435195
20
7.0962038670297005
10
-195.73069786746299
20
7.0962038670296801
10
-194.95424073215602
20
7.1984263881624697
10
-194.23069786746296
20
7.4981276556763508
10
-193.60937752390399
20
7.974883523470031
10
-193.13262165611005
20
8.5962038670296792
10
-192.83292038859599
20
9.3197467317221196
10
-192.73069786746299
20
10.096203867029701
10
-192.73069786746299
20
92.596203867029701
10
-192.83292038859599
20
93.372661002337196
10
-193.13262165611005
20
94.096203867029601
10
-193.60937752390399
20
94.717524210589431
10
-194.23069786746296
20
95.194280078382917
10
-194.95424073215602
20
95.493981345896813
10
-195.73069786746299
20
95.596203867029587
10
-263.79457157435195
20
95.596203867029715
10
-264.57102870966003
20
95.493981345896913
10
-265.29457157435195
20
95.194280078383002
10
-265.91589191791201
20
94.717524210589431
10
-266.39264778570498
20
94.096203867029701
10
-266.692349053219
20
93.372661002337281
10
-266.79457157435195
20
92.596203867029701
10
-266.79457157435195
20
10.096203867029699
10
-266.69234905322003
20
9.319746731722141
10
-266.392647785706
20
8.5962038670297396
10
-265.91589191791201
20
7.9748835234699396
10
-265.29457157435195
20
7.4981276556763703
10
-264.57102870966003
20
7.1984263881626109
0
LWPOLYLINE
5
102
100
AcDbEntity
8
0
100
AcDbPolyline
90
26
70
1
43
0.0
10
-207.17958660689703
20
81.968039493286597
10
-207.02973597313999
20
82.329810925632799
10
-206.79135803924297
20
82.640471097412714
10
-206.48069786746299
20
82.8788490313095
10
-206.11892643511703
20
83.028699665066398
10
-205.73069786746299
20
83.079810925632898
10
-205.34246929980901
20
83.028699665066398
10
-204.98069786746299
20
82.8788490313095
10
-204.67003769568294
20
82.640471097412714
10
-204.43165976178602
20
82.329810925632799
10
-204.28180912803001
20
81.968039493286597
10
-204.23069786746296
20
81.579810925632813
10
-204.23069786746296
20
44.579810925632799
10
-204.28180912803001
20
44.191582357979009
10
-204.43165976178602
20
43.829810925632799
10
-204.67003769568294
20
43.519150753852998
10
-204.98069786746299
20
43.280772819956105
10
-205.34246929980901
20
43.130922186199207
10
-205.73069786746299
20
43.079810925632806
10
-206.11892643511703
20
43.130922186199207
10
-206.48069786746299
20
43.280772819956105
10
-206.79135803924297
20
43.519150753852998
10
-207.02973597313999
20
43.829810925632799
10
-207.17958660689703
20
44.191582357979009
10
-207.23069786746296
20
44.579810925632799
10
-207.23069786746296
20
81.579810925632813
0
LWPOLYLINE
5
103
100
AcDbEntity
8
0
100
AcDbPolyline
90
28
70
1
43
0.0
10
-265.84160016684484
20
98.75512460070172
10
-266.31835603463878
20
99.376444944261522
10
-266.61805730215281
20
100.09998780895394
10
-266.72027982328581
20
100.87644494426152
10
-266.72027982328581
20
183.37644494426144
10
-266.61805730215281
20
184.15290207956943
10
-266.31835603463878
20
184.87644494426146
10
-265.84160016684484
20
185.49776528782144
10
-265.22027982328581
20
185.97452115561447
10
-264.49673695859281
20
186.27422242312844
10
-263.72027982328581
20
186.37644494426144
10
-195.65640611639679
20
186.37644494426144
10
-194.8799489810888
20
186.27422242312844
10
-194.15640611639679
20
185.97452115561447
10
-193.53508577283685
20
185.49776528782144
10
-193.05832990504285
20
184.87644494426146
10
-192.7586286375288
20
184.15290207956943
10
-192.65640611639682
20
183.37644494426144
10
-192.65640611639682
20
100.87644494426144
10
-192.7586286375288
20
100.09998780895394
10
-193.05832990504285
20
99.376444944261451
10
-193.53508577283685
20
98.755124600701834
10
-194.15640611639679
20
98.278368732908135
10
-194.8799489810888
20
97.978667465394253
10
-195.65640611639679
20
97.876444944261536
10
-263.72027982328581
20
97.876444944261536
10
-264.49673695859281
20
97.978667465394437
10
-265.22027982328581
20
98.278368732908135
0
LWPOLYLINE
5
104
100
AcDbEntity
8
0
100
AcDbPolyline
90
24
70
1
43
0.0
10
-238.77570099325681
20
174.88745983188443
10
-239.17274625036882
20
174.79307828070944
10
-239.53183477546884
20
174.59914982859544
10
-239.82849527899177
20
174.3188903790724
10
-240.04251083787878
20
173.97139915047643
10
-240.1592966454678
20
173.58035709577703
10
-240.17089394197086
20
173.17241308477645
10
-240.07651239079587
20
172.77536782766444
10
-239.88258393868182
20
172.41627930256482
10
-239.60232448915875
20
172.11961879904146
10
-239.25483326056184
20
171.90560324015453
10
-238.86379120586284
20
171.78881743256511
10
-238.45584719486283
20
171.77722013606254
10
-238.05880193775081
20
171.87160168723804
10
-237.69971341265079
20
172.06553013935184
10
-237.40305290912778
20
172.34578958887448
10
-237.18903735024085
20
172.6932808174713
10
-237.07225154265086
20
173.08432287217022
10
-237.0606542461488
20
173.49226688317094
10
-237.15503579732385
20
173.88931214028241
10
-237.34896424943781
20
174.24840066538246
10
-237.6292236989608
20
174.54506116890542
10
-237.97671492755774
20
174.75907672779243
10
-238.36775698225679
20
174.87586253538242
0
LWPOLYLINE
5
105
100
AcDbEntity
8
0
100
AcDbPolyline
90
20
70
1
43
0.0
10
-251.31912966980863
20
236.47016569152484
10
-251.31912966980863
20
233.47016569152484
10
-266.31912966980866
20
233.47016569152484
10
-266.31912966980866
20
223.37016569152485
10
-263.31912966980866
20
223.37016569152485
10
-263.31912966980866
20
205.47498215665186
10
-266.31912966980866
20
205.47498215665186
10
-266.31912966980866
20
195.37498215665184
10
-251.31912966980863
20
195.37498215665184
10
-251.31912966980863
20
192.37498215665184
10
-219.31912966980863
20
192.37498215665184
10
-219.31912966980863
20
195.37498215665184
10
-204.31912966980863
20
195.37498215665184
10
-204.31912966980863
20
205.47498215665186
10
-207.31912966980866
20
205.47498215665186
10
-207.31912966980866
20
223.37016569152485
10
-204.31912966980863
20
223.37016569152485
10
-204.31912966980863
20
233.47016569152484
10
-219.31912966980863
20
233.47016569152484
10
-219.31912966980863
20
236.47016569152484
0
LWPOLYLINE
5
106
100
AcDbEntity
8
0
100
AcDbPolyline
90
24
70
1
43
0.0
10
-196.09574594461679
20
180.81578477248144
10
-196.40640611639682
20
180.57740683858444
10
-196.76817754874278
20
180.42755620482748
10
-197.15640611639682
20
180.37644494426144
10
-197.54463468404978
20
180.42755620482748
10
-197.90640611639679
20
180.57740683858444
10
-198.21706628817583
20
180.81578477248144
10
-198.45544422207283
20
181.12644494426146
10
-198.60529485582981
20
181.48821637660743
10
-198.65640611639679
20
181.87644494426144
10
-198.60529485582981
20
182.26467351191542
10
-198.45544422207283
20
182.62644494426144
10
-198.21706628817583
20
182.93710511604144
10
-197.90640611639679
20
183.17548304993846
10
-197.54463468404978
20
183.32533368369542
10
-197.15640611639682
20
183.37644494426144
10
-196.76817754874278
20
183.32533368369542
10
-196.40640611639682
20
183.17548304993846
10
-196.09574594461679
20
182.93710511604144
10
-195.85736801071988
20
182.62644494426144
10
-195.70751737696284
20
182.26467351191542
10
-195.65640611639679
20
181.87644494426144
10
-195.70751737696284
20
181.48821637660743
10
-195.85736801071988
20
181.12644494426146
0
LWPOLYLINE
5
107
100
AcDbEntity
8
0
100
AcDbPolyline
90
20
70
1
43
0.0
10
-156.70251794498083
20
79.351898779663443
10
-156.70251794498083
20
82.351898779663458
10
-174.79770147985386
20
82.351898779663458
10
-174.79770147985386
20
79.351898779663443
10
-184.79770147985386
20
79.351898779663443
10
-184.79770147985386
20
62.351898779663422
10
-187.79770147985386
20
62.351898779663422
10
-187.79770147985386
20
25.851898779663429
10
-184.79770147985386
20
25.851898779663429
10
-184.79770147985386
20
5.8518987796634372
10
-174.69770147985383
20
5.8518987796634221
10
-174.69770147985383
20
8.8518987796634292
10
-156.80251794498085
20
8.8518987796634221
10
-156.80251794498085
20
5.8518987796634221
10
-146.7025179449808
20
5.8518987796634292
10
-146.70251794498083
20
25.851898779663411
10
-143.70251794498083
20
25.851898779663411
10
-143.70251794498083
20
62.351898779663422
10
-146.70251794498083
20
62.351898779663422
10
-146.70251794498083
20
79.351898779663443
0
LWPOLYLINE
5
108
100
AcDbEntity
8
0
100
AcDbPolyline
90
26
70
1
43
0.0
10
-253.38618618472836
20
217.61173574565072
10
-253.53603681848529
20
217.97350717799773
10
-253.5871480790513
20
218.36173574565069
10
-253.53603681848529
20
218.74996431330473
10
-253.38618618472836
20
219.11173574565069
10
-253.14780825083133
20
219.42239591743072
10
-252.83714807905127
20
219.66077385132775
10
-252.47537664670529
20
219.81062448508476
10
-252.08714807905127
20
219.86173574565072
10
-240.0871480790513
20
219.86173574565072
10
-239.69891951139729
20
219.81062448508476
10
-239.3371480790513
20
219.66077385132775
10
-239.02648790727127
20
219.42239591743072
10
-238.78810997337439
20
219.11173574565069
10
-238.63825933961732
20
218.74996431330473
10
-238.5871480790513
20
218.36173574565069
10
-238.63825933961732
20
217.97350717799773
10
-238.78810997337439
20
217.61173574565072
10
-239.02648790727127
20
217.30107557387169
10
-239.3371480790513
20
217.06269763997469
10
-239.69891951139729
20
216.9128470062177
10
-240.0871480790513
20
216.86173574565072
10
-252.08714807905127
20
216.86173574565072
10
-252.47537664670529
20
216.9128470062177
10
-252.83714807905127
20
217.06269763997469
10
-253.14780825083133
20
217.30107557387169
0
LWPOLYLINE
5
109
100
AcDbEntity
8
0
100
AcDbPolyline
90
24
70
1
43
0.0
10
-260.995533468676
20
90.346203867029701
10
-261.23391140257303
20
90.035543695249913
10
-261.54457157435195
20
89.797165761353099
10
-261.90634300669893
20
89.647315127596116
10
-262.29457157435195
20
89.596203867029715
10
-262.68280014200599
20
89.647315127596116
10
-263.04457157435195
20
89.797165761353099
10
-263.35523174613201
20
90.035543695249913
10
-263.59360968002898
20
90.346203867029701
10
-263.74346031378593
20
90.707975299375917
10
-263.79457157435195
20
91.096203867029701
10
-263.74346031378593
20
91.484432434683498
10
-263.59360968002898
20
91.846203867029715
10
-263.35523174613201
20
92.156864038809601
10
-263.04457157435195
20
92.395241972706401
10
-262.68280014200599
20
92.545092606463299
10
-262.29457157435195
20
92.596203867029701
10
-261.90634300669893
20
92.545092606463299
10
-261.54457157435195
20
92.395241972706401
10
-261.23391140257303
20
92.156864038809601
10
-260.995533468676
20
91.846203867029715
10
-260.84568283491899
20
91.484432434683498
10
-260.79457157435195
20
91.096203867029701
10
-260.84568283491899
20
90.707975299375917
0
LWPOLYLINE
5
110
100
AcDbEntity
8
0
100
AcDbPolyline
90
24
70
1
43
0.0
10
-252.01767972189782
20
122.78432287217024
10
-252.13446552948682
20
122.39328081747134
10
-252.34848108837383
20
122.04578958887446
10
-252.64514159189679
20
121.76553013935184
10
-253.00423011699681
20
121.57160168723806
10
-253.40127537410879
20
121.47722013606253
10
-253.8092193851098
20
121.48881743256511
10
-254.2002614398078
20
121.60560324015465
10
-254.54775266840483
20
121.81961879904144
10
-254.82801211792787
20
122.11627930256483
10
-255.02194057004181
20
122.47536782766443
10
-255.11632212121683
20
122.87241308477645
10
-255.10472482471482
20
123.28035709577705
10
-254.9879390171248
20
123.67139915047595
10
-254.77392345823779
20
124.01889037907294
10
-254.47726295471483
20
124.2991498285955
10
-254.11817442961478
20
124.49307828070935
10
-253.72112917250277
20
124.58745983188484
10
-253.31318516150276
20
124.57586253538224
10
-252.92214310680382
20
124.45907672779272
10
-252.57465187820679
20
124.24506116890595
10
-252.29439242868384
20
123.94840066538252
10
-252.10046397656981
20
123.58931214028294
10
-252.00608242539482
20
123.19226688317093
0
LWPOLYLINE
5
111
100
AcDbEntity
8
0
100
AcDbPolyline
90
24
70
1
43
0.0
10
-263.59360968002898
20
12.346203867029802
10
-263.35523174613201
20
12.656864038809601
10
-263.04457157435195
20
12.895241972706499
10
-262.68280014200599
20
13.045092606463403
10
-262.29457157435195
20
13.0962038670298
10
-261.90634300669893
20
13.045092606463403
10
-261.54457157435195
20
12.895241972706499
10
-261.23391140257303
20
12.656864038809601
10
-260.995533468676
20
12.346203867029802
10
-260.84568283491899
20
11.984432434683601
10
-260.79457157435195
20
11.5962038670298
10
-260.84568283491899
20
11.207975299376001
10
-260.995533468676
20
10.8462038670298
10
-261.23391140257303
20
10.53554369525
10
-261.54457157435195
20
10.297165761353103
10
-261.90634300669893
20
10.147315127596199
10
-262.29457157435195
20
10.0962038670298
10
-262.68280014200599
20
10.147315127596199
10
-263.04457157435195
20
10.297165761353103
10
-263.35523174613201
20
10.53554369525
10
-263.59360968002898
20
10.8462038670298
10
-263.74346031378593
20
11.207975299376001
10
-263.79457157435195
20
11.5962038670298
10
-263.74346031378593
20
11.984432434683601
0
LWPOLYLINE
5
112
100
AcDbEntity
8
0
100
AcDbPolyline
90
24
70
1
43
0.0
10
-261.83205125563177
20
183.32533368369542
10
-261.47027982328581
20
183.17548304993846
10
-261.15961965150575
20
182.93710511604144
10
-260.92124171760884
20
182.62644494426144
10
-260.77139108385177
20
182.26467351191542
10
-260.72027982328581
20
181.87644494426144
10
-260.77139108385177
20
181.48821637660743
10
-260.92124171760884
20
181.12644494426146
10
-261.15961965150575
20
180.81578477248144
10
-261.47027982328581
20
180.57740683858444
10
-261.83205125563177
20
180.42755620482748
10
-262.22027982328586
20
180.37644494426144
10
-262.60850839093985
20
180.42755620482748
10
-262.97027982328581
20
180.57740683858444
10
-263.28093999506581
20
180.81578477248144
10
-263.51931792896181
20
181.12644494426146
10
-263.66916856271877
20
181.48821637660743
10
-263.72027982328581
20
181.87644494426144
10
-263.66916856271877
20
182.26467351191542
10
-263.51931792896181
20
182.62644494426144
10
-263.28093999506581
20
182.93710511604144
10
-262.97027982328581
20
183.17548304993846
10
-262.60850839093985
20
183.32533368369542
10
-262.22027982328586
20
183.37644494426144
0
LWPOLYLINE
5
113
100
AcDbEntity
8
0
100
AcDbPolyline
90
24
70
1
43
0.0
10
-196.17003769568296
20
92.156864038809601
10
-195.93165976178696
20
91.846203867029715
10
-195.78180912803003
20
91.484432434683498
10
-195.73069786746299
20
91.096203867029701
10
-195.78180912803003
20
90.707975299375917
10
-195.93165976178696
20
90.346203867029701
10
-196.17003769568296
20
90.035543695249913
10
-196.48069786746299
20
89.797165761353099
10
-196.84246929980901
20
89.647315127596116
10
-197.23069786746296
20
89.596203867029715
10
-197.618926435117
20
89.647315127596116
10
-197.98069786746296
20
89.797165761353099
10
-198.29135803924299
20
90.035543695249913
10
-198.52973597314002
20
90.346203867029701
10
-198.67958660689703
20
90.707975299375917
10
-198.73069786746299
20
91.096203867029701
10
-198.67958660689703
20
91.484432434683498
10
-198.52973597314002
20
91.846203867029715
10
-198.29135803924299
20
92.156864038809601
10
-197.98069786746296
20
92.395241972706401
10
-197.618926435117
20
92.545092606463299
10
-197.23069786746296
20
92.596203867029701
10
-196.84246929980901
20
92.545092606463299
10
-196.48069786746299
20
92.395241972706401
0
LWPOLYLINE
5
114
100
AcDbEntity
8
0
100
AcDbPolyline
90
21
70
1
43
0.0
10
-190
20
180
10
-190
20
212.00000000000003
10
-187
20
212.00000000000003
10
-187
20
224.06387370688944
10
-177
20
224.06387370688944
10
-177.00000000000003
20
227.00000000000031
10
-158.904816465127
20
227.00000000000031
10
-158.90481646512697
20
224.06387370688944
10
-148.90481646512706
20
224.06387370688944
10
-148.90481646512706
20
212.00000000000003
10
-145.90481646512703
20
212.00000000000003
10
-145.90481646512703
20
180
10
-148.90481646512706
20
180
10
-148.90481646512706
20
168
10
-153.90481646512706
20
168
10
-158.90481646512706
20
168
10
-158.90481646512706
20
165
10
-177
20
165
10
-177
20
168
10
-187
20
168
10
-187
20
180
0
LWPOLYLINE
5
115
100
AcDbEntity
8
0
100
AcDbPolyline
90
24
70
1
43
0.0
10
-209.38069786746297
20
25.263191165137503
10
-209.48425125805599
20
25.3426504764364
10
-209.56371056935501
20
25.446203867029698
10
-209.61366078060803
20
25.566794344478403
10
-209.630697867463
20
25.696203867029695
10
-209.61366078060803
20
25.825613389580901
10
-209.56371056935501
20
25.946203867029695
10
-209.48425125805599
20
26.049757257623
10
-209.38069786746297
20
26.129216568921905
10
-209.26010739001401
20
26.179166780174207
10
-209.13069786746297
20
26.196203867029695
10
-209.00128834491201
20
26.179166780174207
10
-208.880697867463
20
26.129216568921905
10
-208.77714447687001
20
26.049757257623
10
-208.69768516557093
20
25.946203867029695
10
-208.64773495431899
20
25.825613389580901
10
-208.63069786746297
20
25.696203867029695
10
-208.64773495431899
20
25.566794344478403
10
-208.69768516557093
20
25.446203867029698
10
-208.77714447687001
20
25.3426504764364
10
-208.880697867463
20
25.263191165137503
10
-209.00128834491201
20
25.213240953885105
10
-209.13069786746297
20
25.196203867029698
10
-209.26010739001401
20
25.213240953885105
0
LWPOLYLINE
5
116
100
AcDbEntity
8
0
100
AcDbPolyline
90
24
70
1
43
0.0
10
-263.51931792896283
20
101.62644494426154
10
-263.66916856271985
20
101.98821637660772
10
-263.72027982328581
20
102.37644494426152
10
-263.66916856271985
20
102.76467351191535
10
-263.51931792896283
20
103.12644494426152
10
-263.28093999506581
20
103.43710511604132
10
-262.97027982328581
20
103.67548304993812
10
-262.60850839093985
20
103.82533368369513
10
-262.22027982328586
20
103.87644494426154
10
-261.83205125563177
20
103.82533368369513
10
-261.47027982328581
20
103.67548304993812
10
-261.15961965150575
20
103.43710511604132
10
-260.92124171760884
20
103.12644494426152
10
-260.77139108385177
20
102.76467351191535
10
-260.72027982328581
20
102.37644494426152
10
-260.77139108385177
20
101.98821637660772
10
-260.92124171760884
20
101.62644494426154
10
-261.15961965150575
20
101.31578477248175
10
-261.47027982328581
20
101.07740683858484
10
-261.83205125563177
20
100.92755620482792
10
-262.22027982328586
20
100.87644494426152
10
-262.60850839093985
20
100.92755620482792
10
-262.97027982328581
20
101.07740683858484
10
-263.28093999506581
20
101.31578477248175
0
LWPOLYLINE
5
117
100
AcDbEntity
8
0
100
AcDbPolyline
90
20
70
1
43
0.0
10
-187.20340495618342
20
104.89333642782978
10
-184.20340495618345
20
104.89333642782978
10
-184.20340495618345
20
84.89333642782978
10
-174.10340495618343
20
84.89333642782978
10
-174.10340495618343
20
87.893336427829766
10
-156.20822142131044
20
87.893336427829766
10
-156.20822142131044
20
84.89333642782978
10
-146.10822142131045
20
84.89333642782978
10
-146.10822142131045
20
104.89333642782978
10
-143.10822142131045
20
104.89333642782978
10
-143.10822142131045
20
141.39333642782975
10
-146.10822142131045
20
141.39333642782975
10
-146.10822142131045
20
158.39333642782975
10
-156.10822142131045
20
158.39333642782975
10
-156.10822142131045
20
161.39333642782975
10
-174.20340495618345
20
161.39333642782975
10
-174.20340495618345
20
158.39333642782975
10
-184.20340495618345
20
158.39333642782975
10
-184.20340495618345
20
141.39333642782975
10
-187.20340495618342
20
141.39333642782975
0
LWPOLYLINE
5
118
100
AcDbEntity
8
0
100
AcDbPolyline
90
24
70
1
43
0.0
10
-212.33730350603679
20
172.77536782766444
10
-212.43168505721184
20
173.17241308477645
10
-212.42008776070981
20
173.58035709577703
10
-212.30330195311979
20
173.97139915047643
10
-212.08928639423377
20
174.3188903790724
10
-211.79262589070981
20
174.59914982859544
10
-211.43353736561082
20
174.79307828070944
10
-211.03649210849881
20
174.88745983188443
10
-210.62854809749777
20
174.87586253538242
10
-210.23750604279883
20
174.75907672779243
10
-209.89001481420183
20
174.54506116890542
10
-209.60975536467882
20
174.24840066538246
10
-209.41582691256582
20
173.88931214028241
10
-209.32144536138981
20
173.49226688317094
10
-209.3330426578928
20
173.08432287217022
10
-209.4498284654818
20
172.6932808174713
10
-209.66384402436881
20
172.34578958887448
10
-209.96050452789177
20
172.06553013935184
10
-210.31959305299185
20
171.87160168723804
10
-210.71663831010383
20
171.77722013606254
10
-211.12458232110481
20
171.78881743256511
10
-211.51562437580381
20
171.90560324015453
10
-211.86311560440083
20
172.11961879904146
10
-212.14337505392282
20
172.41627930256482
0
LWPOLYLINE
5
119
100
AcDbEntity
8
0
100
AcDbPolyline
90
4
70
1
43
0.0
10
-201.55640611639683
20
160.27644494426153
10
-198.75640611639682
20
160.27644494426153
10
-198.75640611639682
20
123.97644494426153
10
-201.55640611639683
20
123.97644494426153
0
LWPOLYLINE
5
120
100
AcDbEntity
8
0
100
AcDbPolyline
90
4
70
1
43
0.0
10
-257.89457157435197
20
69.49620386702972
10
-257.89457157435197
20
33.196203867029709
10
-260.69457157435198
20
33.196203867029709
10
-260.69457157435198
20
69.49620386702972
0
LWPOLYLINE
5
121
100
AcDbEntity
8
0
100
AcDbPolyline
90
4
70
1
43
0.0
10
-153.00481646512696
20
191
10
-153.00481646512696
20
178
10
-165.00481646512696
20
178
10
-165.00481646512696
20
191
0
LWPOLYLINE
5
122
100
AcDbEntity
8
0
100
AcDbPolyline
90
4
70
1
43
0.0
10
-260.62027982328578
20
123.97644494426153
10
-260.62027982328578
20
160.27644494426153
10
-257.82027982328577
20
160.27644494426153
10
-257.82027982328577
20
123.97644494426153
0
LWPOLYLINE
5
123
100
AcDbEntity
8
0
100
AcDbPolyline
90
4
70
1
43
0.0
10
-165.00481646512696
20
210
10
-153.00481646512702
20
210
10
-153.00481646512696
20
220
10
-165.00481646512696
20
220
0
LWPOLYLINE
5
124
100
AcDbEntity
8
0
100
AcDbPolyline
90
24
70
1
43
0.0
10
-198.45544422207283
20
101.62644494426154
10
-198.60529485582981
20
101.98821637660772
10
-198.65640611639679
20
102.37644494426152
10
-198.60529485582981
20
102.76467351191525
10
-198.45544422207283
20
103.12644494426152
10
-198.21706628817583
20
103.43710511604132
10
-197.90640611639679
20
103.67548304993812
10
-197.54463468404978
20
103.82533368369513
10
-197.15640611639682
20
103.87644494426154
10
-196.76817754874278
20
103.82533368369513
10
-196.40640611639682
20
103.67548304993812
10
-196.09574594461679
20
103.43710511604132
10
-195.85736801071988
20
103.12644494426152
10
-195.70751737696284
20
102.76467351191525
10
-195.65640611639679
20
102.37644494426152
10
-195.70751737696284
20
101.98821637660772
10
-195.85736801071988
20
101.62644494426154
10
-196.09574594461679
20
101.31578477248163
10
-196.40640611639682
20
101.07740683858484
10
-196.76817754874278
20
100.92755620482792
10
-197.15640611639682
20
100.87644494426152
10
-197.54463468404978
20
100.92755620482792
10
-197.90640611639679
20
101.07740683858484
10
-198.21706628817583
20
101.31578477248163
0
LWPOLYLINE
5
125
100
AcDbEntity
8
0
100
AcDbPolyline
90
4
70
1
43
0.0
10
-245.62027982328584
20
106.77644494426153
10
-213.8202798232858
20
106.77644494426153
10
-213.8202798232858
20
103.97644494426153
10
-245.62027982328584
20
103.97644494426153
0
LWPOLYLINE
5
126
100
AcDbEntity
8
0
100
AcDbPolyline
90
4
70
1
43
0.0
10
-198.83069786746296
20
33.196203867029709
10
-201.63069786746297
20
33.196203867029709
10
-201.63069786746297
20
69.49620386702972
10
-198.83069786746296
20
69.49620386702972
0
LWPOLYLINE
5
127
100
AcDbEntity
8
0
100
AcDbPolyline
90
4
70
1
43
0.0
10
-213.8202798232858
20
177.47644494426143
10
-245.62027982328584
20
177.47644494426143
10
-245.62027982328584
20
180.27644494426141
10
-213.8202798232858
20
180.27644494426141
0
LWPOLYLINE
5
128
100
AcDbEntity
8
0
100
AcDbPolyline
90
4
70
1
43
0.0
10
-245.69457157435198
20
89.496203867029692
10
-213.89457157435203
20
89.496203867029692
10
-213.89457157435203
20
86.696203867029709
10
-245.69457157435198
20
86.696203867029709
0
LWPOLYLINE
5
129
100
AcDbEntity
8
0
100
AcDbPolyline
90
4
70
1
43
0.0
10
-213.89457157435203
20
15.996203867029699
10
-213.89457157435203
20
13.196203867029698
10
-245.69457157435198
20
13.196203867029698
10
-245.69457157435198
20
15.996203867029699
0
LWPOLYLINE
5
130
100
AcDbEntity
8
0
100
AcDbPolyline
90
26
70
1
43
0.0
10
-252.67003769568299
20
34.519150753852998
10
-252.98069786746296
20
34.280772819956198
10
-253.34246929980901
20
34.1309221861992
10
-253.73069786746299
20
34.079810925632799
10
-254.11892643511703
20
34.1309221861992
10
-254.48069786746299
20
34.280772819956198
10
-254.79135803924297
20
34.519150753852998
10
-255.02973597314002
20
34.829810925632799
10
-255.179586606897
20
35.191582357979001
10
-255.23069786746299
20
35.579810925632799
10
-255.23069786746299
20
81.579810925632813
10
-255.179586606897
20
81.968039493286597
10
-255.02973597314002
20
82.329810925632799
10
-254.79135803924297
20
82.640471097412615
10
-254.48069786746299
20
82.8788490313095
10
-254.11892643511703
20
83.028699665066398
10
-253.73069786746299
20
83.079810925632799
10
-253.34246929980901
20
83.028699665066398
10
-252.98069786746296
20
82.8788490313095
10
-252.67003769568299
20
82.640471097412615
10
-252.43165976178599
20
82.329810925632799
10
-252.28180912803001
20
81.968039493286597
10
-252.23069786746296
20
81.579810925632813
10
-252.23069786746296
20
35.579810925632799
10
-252.28180912803001
20
35.191582357979001
10
-252.43165976178599
20
34.829810925632799
0
ENDSEC
0
SECTION
2
OBJECTS
0
DICTIONARY
5
C
100
AcDbDictionary
3
ACAD_GROUP
350
D
3
ACAD_MLINESTYLE
350
17
0
DICTIONARY
5
D
100
AcDbDictionary
0
DICTIONARY
5
1A
330
C
100
AcDbDictionary
0
DICTIONARY
5
17
100
AcDbDictionary
0
ENDSEC
0
EOF
